TITLE ""
FILE "2Q_j_1435-1448.mp3" MP3
  TRACK 01 AUDIO
    TITLE "2Q_j_1435-1448_01"
    INDEX 01 00:00:00
  TRACK 02 AUDIO
    TITLE "2Q_j_1435-1448_02"
    INDEX 01 00:00:18
  TRACK 03 AUDIO
    TITLE "2Q_j_1435-1448_03"
    INDEX 01 00:02:07
  TRACK 04 AUDIO
    TITLE "2Q_j_1435-1448_04"
    INDEX 01 00:02:54
  TRACK 05 AUDIO
    TITLE "2Q_j_1435-1448_05"
    INDEX 01 00:06:56
  TRACK 06 AUDIO
    TITLE "2Q_j_1435-1448_06"
    INDEX 01 00:07:24
  TRACK 07 AUDIO
    TITLE "2Q_j_1435-1448_07"
    INDEX 01 00:10:38
  TRACK 08 AUDIO
    TITLE "2Q_j_1435-1448_08"
    INDEX 01 00:11:10
  TRACK 09 AUDIO
    TITLE "2Q_j_1435-1448_09"
    INDEX 01 00:12:31
  TRACK 10 AUDIO
    TITLE "2Q_j_1435-1448_10"
    INDEX 01 00:13:03
  TRACK 11 AUDIO
    TITLE "2Q_j_1435-1448_11"
    INDEX 01 00:16:54
  TRACK 12 AUDIO
    TITLE "2Q_j_1435-1448_12"
    INDEX 01 00:17:24
  TRACK 13 AUDIO
    TITLE "2Q_j_1435-1448_13"
    INDEX 01 00:21:40
  TRACK 14 AUDIO
    TITLE "2Q_j_1435-1448_14"
    INDEX 01 00:22:14
  TRACK 15 AUDIO
    TITLE "2Q_j_1435-1448_15"
    INDEX 01 00:23:74
  TRACK 16 AUDIO
    TITLE "2Q_j_1435-1448_16"
    INDEX 01 00:24:52
  TRACK 17 AUDIO
    TITLE "2Q_j_1435-1448_17"
    INDEX 01 00:30:19
  TRACK 18 AUDIO
    TITLE "2Q_j_1435-1448_18"
    INDEX 01 00:30:64
  TRACK 19 AUDIO
    TITLE "2Q_j_1435-1448_19"
    INDEX 01 00:34:17
  TRACK 20 AUDIO
    TITLE "2Q_j_1435-1448_20"
    INDEX 01 00:35:01
  TRACK 21 AUDIO
    TITLE "2Q_j_1435-1448_21"
    INDEX 01 00:36:16
  TRACK 22 AUDIO
    TITLE "2Q_j_1435-1448_22"
    INDEX 01 00:36:71
  TRACK 23 AUDIO
    TITLE "2Q_j_1435-1448_23"
    INDEX 01 00:38:66
  TRACK 24 AUDIO
    TITLE "2Q_j_1435-1448_24"
    INDEX 01 00:39:36
  TRACK 25 AUDIO
    TITLE "2Q_j_1435-1448_25"
    INDEX 01 00:44:33
  TRACK 26 AUDIO
    TITLE "2Q_j_1435-1448_26"
    INDEX 01 00:45:09
  TRACK 27 AUDIO
    TITLE "2Q_j_1435-1448_27"
    INDEX 01 00:46:40
  TRACK 28 AUDIO
    TITLE "2Q_j_1435-1448_28"
    INDEX 01 00:47:10
  TRACK 29 AUDIO
    TITLE "2Q_j_1435-1448_29"
    INDEX 01 00:48:39
  TRACK 30 AUDIO
    TITLE "2Q_j_1435-1448_30"
    INDEX 01 00:49:09
  TRACK 31 AUDIO
    TITLE "2Q_j_1435-1448_31"
    INDEX 01 00:52:46
  TRACK 32 AUDIO
    TITLE "2Q_j_1435-1448_32"
    INDEX 01 00:53:16
  TRACK 33 AUDIO
    TITLE "2Q_j_1435-1448_33"
    INDEX 01 00:54:39
  TRACK 34 AUDIO
    TITLE "2Q_j_1435-1448_34"
    INDEX 01 00:55:11
  TRACK 35 AUDIO
    TITLE "2Q_j_1435-1448_35"
    INDEX 01 00:58:23
  TRACK 36 AUDIO
    TITLE "2Q_j_1435-1448_36"
    INDEX 01 00:58:68
  TRACK 37 AUDIO
    TITLE "2Q_j_1435-1448_37"
    INDEX 01 01:01:04
  TRACK 38 AUDIO
    TITLE "2Q_j_1435-1448_38"
    INDEX 01 01:01:55
  TRACK 39 AUDIO
    TITLE "2Q_j_1435-1448_39"
    INDEX 01 01:03:40
  TRACK 40 AUDIO
    TITLE "2Q_j_1435-1448_40"
    INDEX 01 01:04:12
  TRACK 41 AUDIO
    TITLE "2Q_j_1435-1448_41"
    INDEX 01 01:08:16
  TRACK 42 AUDIO
    TITLE "2Q_j_1435-1448_42"
    INDEX 01 01:08:61
  TRACK 43 AUDIO
    TITLE "2Q_j_1435-1448_43"
    INDEX 01 01:12:63
  TRACK 44 AUDIO
    TITLE "2Q_j_1435-1448_44"
    INDEX 01 01:13:33
  TRACK 45 AUDIO
    TITLE "2Q_j_1435-1448_45"
    INDEX 01 01:15:30
  TRACK 46 AUDIO
    TITLE "2Q_j_1435-1448_46"
    INDEX 01 01:16:02
  TRACK 47 AUDIO
    TITLE "2Q_j_1435-1448_47"
    INDEX 01 01:18:10
  TRACK 48 AUDIO
    TITLE "2Q_j_1435-1448_48"
    INDEX 01 01:18:55
  TRACK 49 AUDIO
    TITLE "2Q_j_1435-1448_49"
    INDEX 01 01:23:53
  TRACK 50 AUDIO
    TITLE "2Q_j_1435-1448_50"
    INDEX 01 01:24:25
  TRACK 51 AUDIO
    TITLE "2Q_j_1435-1448_51"
    INDEX 01 01:25:71
  TRACK 52 AUDIO
    TITLE "2Q_j_1435-1448_52"
    INDEX 01 01:26:43
  TRACK 53 AUDIO
    TITLE "2Q_j_1435-1448_53"
    INDEX 01 01:28:50
  TRACK 54 AUDIO
    TITLE "2Q_j_1435-1448_54"
    INDEX 01 01:29:20
  TRACK 55 AUDIO
    TITLE "2Q_j_1435-1448_55"
    INDEX 01 01:32:54
  TRACK 56 AUDIO
    TITLE "2Q_j_1435-1448_56"
    INDEX 01 01:33:26
  TRACK 57 AUDIO
    TITLE "2Q_j_1435-1448_57"
    INDEX 01 01:35:23
  TRACK 58 AUDIO
    TITLE "2Q_j_1435-1448_58"
    INDEX 01 01:35:70
  TRACK 59 AUDIO
    TITLE "2Q_j_1435-1448_59"
    INDEX 01 01:38:11
  TRACK 60 AUDIO
    TITLE "2Q_j_1435-1448_60"
    INDEX 01 01:38:56
  TRACK 61 AUDIO
    TITLE "2Q_j_1435-1448_61"
    INDEX 01 01:42:31
  TRACK 62 AUDIO
    TITLE "2Q_j_1435-1448_62"
    INDEX 01 01:43:01
  TRACK 63 AUDIO
    TITLE "2Q_j_1435-1448_63"
    INDEX 01 01:44:55
  TRACK 64 AUDIO
    TITLE "2Q_j_1435-1448_64"
    INDEX 01 01:45:33
  TRACK 65 AUDIO
    TITLE "2Q_j_1435-1448_65"
    INDEX 01 01:48:31
  TRACK 66 AUDIO
    TITLE "2Q_j_1435-1448_66"
    INDEX 01 01:49:01
  TRACK 67 AUDIO
    TITLE "2Q_j_1435-1448_67"
    INDEX 01 01:54:02
  TRACK 68 AUDIO
    TITLE "2Q_j_1435-1448_68"
    INDEX 01 01:54:55
  TRACK 69 AUDIO
    TITLE "2Q_j_1435-1448_69"
    INDEX 01 01:56:03
  TRACK 70 AUDIO
    TITLE "2Q_j_1435-1448_70"
    INDEX 01 01:56:50
  TRACK 71 AUDIO
    TITLE "2Q_j_1435-1448_71"
    INDEX 01 01:59:04
  TRACK 72 AUDIO
    TITLE "2Q_j_1435-1448_72"
    INDEX 01 01:59:49
  TRACK 73 AUDIO
    TITLE "2Q_j_1435-1448_73"
    INDEX 01 02:03:37
  TRACK 74 AUDIO
    TITLE "2Q_j_1435-1448_74"
    INDEX 01 02:04:07
  TRACK 75 AUDIO
    TITLE "2Q_j_1435-1448_75"
    INDEX 01 02:05:45
  TRACK 76 AUDIO
    TITLE "2Q_j_1435-1448_76"
    INDEX 01 02:06:17
  TRACK 77 AUDIO
    TITLE "2Q_j_1435-1448_77"
    INDEX 01 02:09:63
  TRACK 78 AUDIO
    TITLE "2Q_j_1435-1448_78"
    INDEX 01 02:10:33
  TRACK 79 AUDIO
    TITLE "2Q_j_1435-1448_79"
    INDEX 01 02:13:27
  TRACK 80 AUDIO
    TITLE "2Q_j_1435-1448_80"
    INDEX 01 02:13:72
  TRACK 81 AUDIO
    TITLE "2Q_j_1435-1448_81"
    INDEX 01 02:15:34
  TRACK 82 AUDIO
    TITLE "2Q_j_1435-1448_82"
    INDEX 01 02:16:06
  TRACK 83 AUDIO
    TITLE "2Q_j_1435-1448_83"
    INDEX 01 02:17:66
  TRACK 84 AUDIO
    TITLE "2Q_j_1435-1448_84"
    INDEX 01 02:18:36
  TRACK 85 AUDIO
    TITLE "2Q_j_1435-1448_85"
    INDEX 01 02:24:07
